<?xml version="1.0" encoding="iso-8859-1"?>
<!-- Generator: Adobe Illustrator 18.0.0, SVG Export Plug-In . SVG Version: 6.00 Build 0)  -->
<!DOCTYPE svg PUBLIC "-//W3C//DTD SVG 1.1//EN" "http://www.w3.org/Graphics/SVG/1.1/DTD/svg11.dtd">
<svg version="1.1" id="Capa_1" xmlns="http://www.w3.org/2000/svg" xmlns:xlink="http://www.w3.org/1999/xlink" x="0px" y="0px"
	 viewBox="0 0 476.842 476.842" style="enable-background:new 0 0 476.842 476.842;" xml:space="preserve">
<g>
	<path style="fill:#020202;" d="M358.327,365.962c0,1.397-1.132,2.537-2.528,2.537H34.495c-1.397,0-2.528-1.14-2.528-2.537V147.926
		c0-1.396,1.131-2.536,2.528-2.536h195.951v-31.967H34.495C15.477,113.423,0,128.899,0,147.926v218.037
		c0,19.028,15.477,34.503,34.495,34.503H142.21v42.253h-16.982c-8.828,0-15.983,7.155-15.983,15.983
		c0,8.826,7.155,15.983,15.983,15.983h139.853c8.826,0,15.983-7.157,15.983-15.983c0-8.828-7.157-15.983-15.983-15.983h-16.982
		v-42.253h107.7c19.018,0,34.495-15.475,34.495-34.503v-48.386h-31.966V365.962z"/>
	<path style="fill:#020202;" d="M439.413,2.158H299.841c-20.642,0-37.429,16.787-37.429,37.43v136.801l31.966,31.967V39.587
		c0-3.013,2.45-5.463,5.463-5.463h139.572c3.013,0,5.463,2.45,5.463,5.463v193.726H308.27c0.172,1.46,0.43,2.912,0.43,4.402
		c0,9.7-3.778,18.823-10.639,25.677l-13.985,13.985l-2.997,3.003c5.534,3.24,11.895,5.229,18.763,5.229h139.572
		c20.642,0,37.429-16.787,37.429-37.429V39.587C476.842,18.945,460.055,2.158,439.413,2.158z M369.627,245.355
		c7.164,0,12.986,5.814,12.986,12.986c0,7.174-5.822,12.987-12.986,12.987c-7.18,0-12.986-5.813-12.986-12.987
		C356.641,251.169,362.447,245.355,369.627,245.355z"/>
	<path style="fill:#020202;" d="M218.872,293.578c0.537,0.227,1.1,0.328,1.662,0.328c1.132,0,2.247-0.437,3.082-1.272l51.845-51.843
		c1.693-1.694,1.693-4.456,0-6.15l-51.845-51.843c-0.835-0.836-1.95-1.273-3.082-1.273c-0.563,0-1.125,0.101-1.662,0.328
		c-1.624,0.671-2.685,2.255-2.685,4.02v29.36c-57.549,5.345-102.611,53.724-102.611,112.67c0,1.029,0.015,2.052,0.039,3.067
		c0.063,2.044,1.538,3.761,3.544,4.129c0.257,0.046,0.515,0.07,0.764,0.07c1.732,0,3.332-1.045,4.003-2.693
		c15.563-38.233,51.485-65.736,94.261-69.74v26.825C216.187,291.322,217.248,292.906,218.872,293.578z"/>
</g>
<g>
</g>
<g>
</g>
<g>
</g>
<g>
</g>
<g>
</g>
<g>
</g>
<g>
</g>
<g>
</g>
<g>
</g>
<g>
</g>
<g>
</g>
<g>
</g>
<g>
</g>
<g>
</g>
<g>
</g>
</svg>
